<svg width="206" height="53" viewBox="0 0 206 53" fill="none" xmlns="http://www.w3.org/2000/svg">
<path d="M13.0855 52.2367L19.3741 52.1647L28.4983 16.135L28.635 16.1334L38.5477 51.9451L44.8705 51.8727L56.7405 1.89951L48.7771 1.9907L41.3218 37.4886L41.1851 37.4901L31.1416 2.19266L25.6732 2.25528L16.4064 37.7739L16.2697 37.7754L8.0376 2.45724L0.074255 2.54843L13.0855 52.2367ZM63.887 33.8803C63.9298 37.6171 64.27 40.4616 64.9077 42.4141C65.5681 44.3663 66.5673 46.0526 67.9052 47.4729C68.8978 48.5781 70.2764 49.565 72.041 50.4335C73.7839 51.3935 76.0113 51.8807 78.7232 51.8952C81.5252 51.8175 83.7865 51.2789 85.5069 50.2793C86.4364 49.8585 87.1941 49.3599 87.7799 48.7835C88.435 48.2746 88.9873 47.7556 89.437 47.2263C90.8333 45.7747 91.8164 44.0657 92.3863 42.0994C92.9335 40.1334 93.1857 37.282 93.1429 33.5453C93.1001 29.8086 92.7824 26.9409 92.1899 24.9424C91.575 22.9896 90.5535 21.3492 89.1255 20.0211C88.1777 18.8469 86.8441 17.8026 85.1245 16.888C83.3827 16.0192 81.1102 15.5781 78.3071 15.5646C75.5963 15.6412 73.3801 16.1337 71.6586 17.0422C69.9148 17.9964 68.5599 19.0716 67.5937 20.2676C66.2876 21.6271 65.3267 23.2902 64.7112 25.257C64.119 27.2692 63.8442 30.1436 63.887 33.8803ZM86.0006 33.6954C86.0283 36.1106 85.9347 37.8892 85.7199 39.031C85.5054 40.1957 85.05 41.2264 84.3538 42.1231C83.8376 42.8126 83.0698 43.4253 82.0505 43.9611C81.0765 44.4736 79.9401 44.7372 78.6414 44.7521C77.4338 44.7659 76.3145 44.5281 75.2834 44.0386C74.2976 43.5257 73.4932 42.9311 72.8702 42.2546C72.2449 41.373 71.7888 40.3528 71.5021 39.1939C71.2156 38.0577 71.0583 36.2593 71.0301 33.7985C71.0017 31.315 71.1175 29.4906 71.3776 28.3254C71.6383 27.2058 72.0713 26.221 72.6769 25.3709C73.2829 24.5664 74.0732 23.9307 75.0478 23.4637C76.0676 22.9735 77.1813 22.7215 78.3889 22.7077C79.6877 22.6928 80.8297 22.919 81.8149 23.3863C82.8454 23.8302 83.6273 24.4479 84.1605 25.2394C84.8765 26.0744 85.3548 27.0488 85.5954 28.1626C85.8366 29.322 85.9717 31.1663 86.0006 33.6954ZM105.731 51.1757L112.874 51.0939L112.629 29.733C112.645 27.135 113.376 25.2467 114.821 24.0679C116.106 22.8682 117.66 22.2579 119.483 22.2371C121.1 22.2185 122.668 22.7931 124.185 23.9607L129.309 17.7151C127.17 15.9621 124.676 15.0792 121.827 15.0662C118.022 15.1098 114.962 16.5463 112.648 19.3757L112.511 19.3773L112.468 15.6177L105.325 15.6995L105.731 51.1757ZM137.904 50.8073L145.047 50.7255L144.93 40.5064L150.463 34.0853L160.085 50.5533L169.04 50.4507L154.882 28.9757L166.959 14.9937L158.415 15.0916L144.968 31.8922L144.832 31.8937L144.477 0.894783L137.334 0.976583L137.904 50.8073ZM180.104 39.4884L175.17 44.4329C179.844 48.6179 185.075 50.6773 190.862 50.611C195.122 50.5167 198.609 49.4969 201.321 47.5516C204.057 45.6517 205.427 42.9812 205.434 39.5401C205.4 36.6009 204.609 34.183 203.06 32.2866C201.397 30.3458 198.719 29.2599 195.024 29.0287L189.141 28.6518C187.407 28.4893 186.195 28.0816 185.504 27.4287C184.745 26.8449 184.384 26.154 184.42 25.356C184.406 24.1028 184.861 23.0721 185.786 22.264C186.666 21.4563 188.222 21.0397 190.455 21.0141C192.414 20.9917 194.149 21.2567 195.66 21.8091C197.193 22.4296 198.65 23.2219 200.028 24.186L204.378 18.9747C202.629 17.4907 200.656 16.3169 198.458 15.4534C197.314 15.0563 196.091 14.7513 194.79 14.5383C193.489 14.3481 192.018 14.2624 190.378 14.2812C186.595 14.3245 183.484 15.2716 181.044 17.1226C178.536 18.9744 177.28 21.7233 177.276 25.3694C177.357 28.3993 178.363 30.7463 180.297 32.4105C182.185 34.1208 184.623 35.0955 187.611 35.3348L193.906 35.8096C195.228 35.84 196.291 36.1127 197.094 36.6276C197.874 37.12 198.272 38.0042 198.287 39.2802C198.303 40.7156 197.666 41.8395 196.377 42.6518C195.087 43.4642 193.417 43.8821 191.366 43.9056C186.787 43.958 183.033 42.4856 180.104 39.4884Z" fill="#F2F2F2"/>
</svg>
